<?xml version="1.0" standalone="no"?>
<!DOCTYPE svg PUBLIC "-//W3C//DTD SVG 20010904//EN"
 "http://www.w3.org/TR/2001/REC-SVG-20010904/DTD/svg10.dtd">
<svg version="1.0" xmlns="http://www.w3.org/2000/svg"
 width="644.000000pt" height="644.000000pt" viewBox="0 0 644.000000 644.000000"
 preserveAspectRatio="xMidYMid meet">
<metadata>
Created by potrace 1.14, written by Peter Selinger 2001-2017
</metadata>
<g transform="translate(0.000000,644.000000) scale(0.100000,-0.100000)"
fill="#000000" stroke="none">
<path d="M5100 5490 c-146 -37 -472 -121 -725 -185 -253 -64 -548 -139 -655
-166 -107 -28 -206 -52 -220 -55 -14 -3 -38 -9 -55 -14 -16 -5 -309 -79 -650
-165 -341 -86 -635 -161 -652 -166 l-33 -10 0 -1277 c0 -702 0 -1314 0 -1359
l0 -83 -67 49 c-86 63 -174 106 -274 136 -70 21 -189 40 -244 38 -247 -6 -454
-88 -620 -245 -117 -110 -190 -224 -239 -370 -34 -102 -41 -154 -40 -303 2
-109 6 -144 28 -220 114 -383 434 -635 826 -650 418 -16 788 253 899 654 11
39 20 72 19 74 0 1 3 27 7 58 4 31 8 560 9 1175 l1 1119 45 11 c25 7 243 62
485 124 242 62 447 113 455 115 8 2 87 22 175 45 88 23 167 43 175 45 8 1 249
62 535 135 286 72 527 133 535 135 8 2 68 18 133 34 65 17 120 31 122 31 3 0
5 -331 5 -735 l0 -735 -51 40 c-234 185 -571 236 -857 130 -232 -87 -421 -270
-515 -500 -52 -127 -61 -180 -62 -330 0 -146 5 -186 36 -282 103 -321 381
-559 714 -611 288 -46 566 46 774 254 110 111 181 233 233 400 l23 74 3 1828
c1 1005 -1 1827 -5 1826 -5 0 -127 -32 -273 -69z"/>
</g>
</svg>
