<?xml version="1.0" standalone="no"?>
<!DOCTYPE svg PUBLIC "-//W3C//DTD SVG 20010904//EN"
 "http://www.w3.org/TR/2001/REC-SVG-20010904/DTD/svg10.dtd">
<svg version="1.0" xmlns="http://www.w3.org/2000/svg"
 width="512.000000pt" height="512.000000pt" viewBox="0 0 512.000000 512.000000"
 preserveAspectRatio="xMidYMid meet">
<metadata>
Created by potrace 1.14, written by Peter Selinger 2001-2017
</metadata>
<g transform="translate(0.000000,512.000000) scale(0.100000,-0.100000)"
fill="#000000" stroke="none">
<path d="M1282 5103 c-18 -9 -43 -30 -55 -47 l-22 -31 -3 -1062 -2 -1062 -76
35 c-210 98 -480 108 -689 28 -448 -174 -572 -615 -261 -924 92 -91 262 -177
406 -205 19 -4 87 -8 150 -10 361 -11 681 189 754 470 14 52 16 199 16 1170
l1 1110 30 -35 c16 -19 81 -102 143 -185 260 -346 401 -628 421 -842 13 -141
-64 -318 -214 -491 -65 -76 -79 -102 -80 -145 -2 -102 83 -172 186 -152 81 15
269 260 352 460 48 113 65 212 58 330 -17 295 -182 638 -513 1070 -171 224
-415 494 -469 519 -42 20 -91 20 -133 -1z"/>
<path d="M4310 3932 c-344 -148 -641 -276 -660 -285 -19 -8 -219 -94 -444
-190 -225 -96 -422 -185 -437 -198 -15 -12 -32 -39 -38 -59 -8 -26 -11 -341
-11 -1078 l0 -1041 -76 35 c-131 61 -210 77 -374 77 -109 1 -161 -4 -210 -17
-261 -71 -432 -209 -510 -411 -32 -83 -33 -242 -2 -327 62 -171 217 -312 424
-387 172 -63 413 -64 588 -3 189 66 330 181 406 332 54 108 53 91 54 1115 0
522 4 952 8 956 4 4 35 19 69 33 57 24 126 54 210 92 17 8 34 14 37 14 3 0 30
11 61 25 30 14 80 36 110 50 31 14 61 25 68 25 7 0 17 4 23 8 5 5 34 19 64 32
30 12 73 30 95 40 34 15 922 394 1023 437 l32 13 0 -620 0 -620 -57 29 c-141
71 -236 91 -417 87 -108 -3 -158 -9 -216 -25 -326 -95 -524 -329 -507 -601 6
-100 31 -173 88 -256 96 -140 238 -234 432 -286 116 -32 345 -32 460 0 207 57
385 191 467 352 51 101 50 58 50 1481 0 1241 -1 1326 -18 1358 -24 48 -62 73
-119 78 -45 4 -90 -14 -673 -265z"/>
</g>
</svg>
